<?xml version="1.0" standalone="no"?>
<!DOCTYPE svg PUBLIC "-//W3C//DTD SVG 20010904//EN"
 "http://www.w3.org/TR/2001/REC-SVG-20010904/DTD/svg10.dtd">
<svg version="1.0" xmlns="http://www.w3.org/2000/svg"
 width="224.000000pt" height="199.000000pt" viewBox="0 0 224.000000 199.000000"
 preserveAspectRatio="xMidYMid meet">

<g transform="translate(0.000000,199.000000) scale(0.100000,-0.100000)"
fill="#ffffff" stroke="none">
<path d="M615 1940 c-16 -4 -150 -8 -297 -9 -171 -1 -268 -5 -268 -11 0 -5 12
-10 26 -10 36 0 61 -16 79 -50 23 -44 22 -897 0 -940 -15 -29 -57 -58 -92 -62
-10 -2 110 -5 266 -8 l284 -5 79 -213 78 -214 -35 -66 c-84 -159 -211 -283
-306 -298 -61 -10 -46 -24 25 -24 123 0 250 89 339 238 19 31 99 211 178 399
79 189 146 343 149 343 3 -1 41 -80 84 -178 183 -411 249 -552 256 -552 4 0
10 27 13 59 8 89 317 1045 370 1145 74 138 166 214 301 247 l71 18 -71 0
c-179 2 -327 -97 -420 -280 -20 -40 -70 -195 -124 -385 -50 -176 -93 -327 -96
-338 -4 -10 -9 -14 -14 -10 -4 5 -74 156 -156 337 -81 180 -150 327 -153 327
-3 0 -67 -147 -141 -326 -74 -179 -138 -328 -142 -330 -3 -2 -15 19 -26 48
l-20 53 43 3 44 3 31 137 c17 75 34 145 36 155 10 34 -5 16 -29 -37 -40 -88
-149 -191 -162 -154 -2 7 -29 83 -60 170 -68 194 -72 244 -15 183 13 -13 26
-42 30 -62 5 -22 8 40 7 142 0 99 -2 164 -4 145 -6 -49 -46 -97 -91 -110 -21
-6 -91 -10 -162 -8 l-125 3 -3 223 -2 222 77 0 c114 0 163 -35 182 -131 7 -34
9 -15 10 89 1 72 -2 131 -6 131 -5 -1 -21 -5 -38 -9z m-183 -631 c20 -26 148
-361 148 -386 0 -11 -18 -13 -92 -11 l-93 3 -3 213 c-3 225 0 235 40 181z"/>
</g>
</svg>
